<?xml version="1.0" encoding="utf-8"?>
<!-- Generator: Adobe Illustrator 18.1.1, SVG Export Plug-In . SVG Version: 6.00 Build 0)  -->
<svg version="1.1" id="Layer_1" xmlns="http://www.w3.org/2000/svg" xmlns:xlink="http://www.w3.org/1999/xlink" x="0px" y="0px"
	 viewBox="0 0 160 160" enable-background="new 0 0 160 160" xml:space="preserve">
<g>
	<path fill="#515151" d="M132.5,78.7l-18.4-18.2c-0.7-0.7-1.9-0.7-2.6,0c-0.7,0.7-0.7,1.9,0,2.6l15.2,15.1H28.8
		c-1,0-1.8,0.8-1.8,1.8c0,1,0.8,1.8,1.8,1.8h97.9l-15.2,15.1c-0.7,0.7-0.7,1.9,0,2.6c0.4,0.4,0.8,0.5,1.3,0.5c0.5,0,0.9-0.2,1.3-0.5
		l18.4-18.2C133.2,80.6,133.2,79.4,132.5,78.7z"/>
	<g>
		<path fill="#A3A3A3" d="M80,2c43,0,78,35,78,78s-35,78-78,78c-43,0-78-35-78-78S37,2,80,2 M80,0C35.8,0,0,35.8,0,80
			c0,44.2,35.8,80,80,80c44.2,0,80-35.8,80-80C160,35.8,124.2,0,80,0L80,0z"/>
	</g>
</g>
</svg>
