<svg xmlns="http://www.w3.org/2000/svg" xmlns:xlink="http://www.w3.org/1999/xlink" preserveAspectRatio="xMidYMid" width="48" height="97" viewBox="0 0 48 97">
  <defs>
    <style>

      .cls-2 {
        fill: #515151;
      }
    </style>
  </defs>
  <path d="M46.307,61.407 C46.307,61.407 40.080,41.165 40.080,41.165 C40.080,41.165 36.821,29.104 36.821,29.104 C36.414,27.889 36.020,27.243 35.418,27.243 C34.815,27.243 38.050,48.801 38.050,48.801 C38.050,48.801 38.046,48.801 38.046,48.801 C38.046,48.801 39.336,61.779 37.194,61.779 C37.194,61.779 35.805,61.779 35.805,61.779 C35.805,61.779 33.931,90.247 33.931,90.247 C33.931,93.650 32.093,96.465 29.688,96.998 C29.688,96.998 30.208,62.957 30.208,62.957 C30.208,61.926 29.466,62.086 28.555,62.086 C27.644,62.086 26.901,61.926 26.901,62.957 C26.901,62.957 27.422,96.999 27.422,96.999 C25.017,96.466 23.179,93.651 23.179,90.248 C23.179,90.248 21.307,61.780 21.307,61.780 C21.307,61.780 19.917,61.780 19.917,61.780 C17.772,61.780 19.063,48.802 19.063,48.802 C19.063,48.802 22.292,27.244 21.693,27.244 C21.090,27.244 20.697,27.891 20.289,29.105 C20.289,29.105 17.678,38.768 17.678,38.768 C17.678,38.768 17.730,38.767 17.730,38.767 C17.730,38.767 16.254,43.180 16.254,43.180 C11.171,43.234 6.561,42.558 4.599,42.557 C2.506,42.559 1.399,41.839 0.013,39.483 C0.013,39.483 13.107,38.961 13.107,38.961 C14.357,34.545 15.565,30.300 16.292,27.759 C17.949,21.950 19.712,19.599 25.188,19.599 C25.188,19.599 31.925,19.599 31.925,19.599 C37.401,19.599 39.165,22.069 40.825,27.877 C41.663,30.819 43.147,36.040 44.595,41.167 C46.004,46.169 47.166,52.917 47.689,54.852 C48.240,56.891 48.165,59.433 46.307,61.407 ZM28.715,18.300 C26.095,18.300 23.483,13.127 23.483,9.319 C23.483,6.682 24.607,4.396 26.258,3.236 C27.312,1.397 28.827,-0.130 29.642,-0.009 C30.425,0.108 31.393,1.882 31.898,3.859 C33.142,5.118 33.948,7.093 33.948,9.319 C33.948,13.127 31.336,18.300 28.715,18.300 ZM5.555,37.773 C5.555,37.994 5.398,38.170 5.203,38.170 C5.203,38.170 1.159,38.170 1.159,38.170 C0.965,38.170 0.807,37.994 0.807,37.773 C0.807,37.773 0.120,27.262 0.120,27.262 C0.120,27.152 0.078,26.930 0.333,26.921 C0.333,26.921 6.030,26.921 6.030,26.921 C6.327,26.906 6.243,27.152 6.243,27.262 C6.243,27.262 5.555,37.773 5.555,37.773 Z" id="path-1" class="cls-2" fill-rule="evenodd"/>
</svg>
