<svg xmlns="http://www.w3.org/2000/svg" xmlns:xlink="http://www.w3.org/1999/xlink" preserveAspectRatio="xMidYMid" width="99" height="39" viewBox="0 0 99 39">
  <defs>
    <style>

      .cls-2 {
        fill: #515151;
      }
    </style>
  </defs>
  <path d="M97.384,38.448 C97.384,38.448 82.312,28.334 82.312,28.334 C81.604,27.858 81.604,27.083 82.312,26.607 C82.312,26.607 89.434,21.829 89.434,21.829 C90.142,21.353 91.300,21.353 92.008,21.829 C92.008,21.829 97.384,25.436 97.384,25.436 C98.092,25.912 98.671,26.993 98.671,27.839 C98.671,27.839 98.671,37.773 98.671,37.773 C98.671,38.619 98.092,38.923 97.384,38.448 ZM78.603,25.902 C78.603,25.902 78.603,30.394 78.603,30.394 C78.603,32.785 76.629,34.739 74.218,34.739 C74.218,34.739 54.087,34.739 54.087,34.739 C51.674,34.739 49.701,32.785 49.701,30.394 C49.701,30.394 49.701,10.450 49.701,10.450 C49.701,8.060 51.674,6.105 54.087,6.105 C54.087,6.105 74.218,6.105 74.218,6.105 C76.629,6.105 78.603,8.060 78.603,10.450 C78.603,10.450 78.603,12.891 78.603,12.891 C78.603,12.891 97.386,0.228 97.386,0.228 C98.093,-0.248 98.671,0.055 98.671,0.901 C98.671,0.901 98.671,10.834 98.671,10.834 C98.671,11.681 98.093,12.763 97.386,13.240 C97.386,13.240 78.603,25.902 78.603,25.902 ZM73.694,10.969 C73.694,10.969 54.609,10.969 54.609,10.969 C54.609,10.969 54.609,29.874 54.609,29.874 C54.609,29.874 73.694,29.874 73.694,29.874 C73.694,29.874 73.694,10.969 73.694,10.969 ZM70.367,26.580 C70.367,26.580 57.937,26.580 57.937,26.580 C57.937,26.580 57.937,14.265 57.937,14.265 C57.937,14.265 70.367,14.265 70.367,14.265 C70.367,14.265 70.367,26.580 70.367,26.580 ZM38.580,29.308 C38.580,29.308 29.927,29.308 29.927,29.308 C29.927,29.308 29.927,33.200 29.927,33.200 C29.927,34.046 29.229,34.739 28.374,34.739 C28.374,34.739 21.615,34.739 21.615,34.739 C20.761,34.739 20.062,34.046 20.062,33.200 C20.062,33.200 20.062,25.842 20.062,25.842 C20.062,25.842 1.557,25.842 1.557,25.842 C0.703,25.842 0.004,25.150 0.004,24.303 C0.004,24.303 0.004,16.543 0.004,16.543 C0.004,15.696 0.703,15.003 1.557,15.004 C1.557,15.004 20.063,15.004 20.063,15.004 C20.063,15.004 20.063,7.645 20.063,7.645 C20.063,6.799 20.761,6.106 21.616,6.106 C21.616,6.106 28.375,6.106 28.375,6.106 C29.229,6.106 29.928,6.798 29.928,7.645 C29.928,7.645 29.928,11.537 29.928,11.537 C29.928,11.537 38.582,11.537 38.582,11.537 C40.994,11.537 42.967,13.492 42.966,15.881 C42.966,15.881 42.966,24.964 42.966,24.964 C42.966,27.354 40.992,29.308 38.580,29.308 ZM38.059,16.401 C38.059,16.401 29.928,16.401 29.928,16.401 C29.928,16.401 29.928,24.444 29.928,24.444 C29.928,24.444 38.059,24.444 38.059,24.444 C38.059,24.444 38.059,16.401 38.059,16.401 Z" id="path-1" class="cls-2" fill-rule="evenodd"/>
</svg>
