<svg xmlns="http://www.w3.org/2000/svg" xmlns:xlink="http://www.w3.org/1999/xlink" preserveAspectRatio="xMidYMid" width="24" height="12" viewBox="0 0 24 12">
  <defs>
    <style>

      .cls-2 {
        fill: #a3a3a3;
      }
    </style>
  </defs>
  <path d="M4.778,12.006 C4.778,12.006 15.491,9.635 23.147,1.604 C23.147,1.604 24.742,-0.000 21.618,-0.000 C18.984,-0.000 15.218,2.921 15.218,2.921 C15.218,2.921 4.777,1.219 4.777,1.219 C4.777,1.219 2.755,3.339 2.755,3.339 C2.755,3.339 8.450,6.227 8.450,6.227 C8.450,6.227 5.020,8.665 5.020,8.665 C5.020,8.665 2.082,7.126 2.082,7.126 C2.082,7.126 0.001,8.153 0.001,8.153 C0.001,8.153 2.207,10.561 4.778,12.006 Z" id="path-1" class="cls-2" fill-rule="evenodd"/>
</svg>
